Crispy Narrow Thin-MaxGrade.ufo
<glyph name="ampersand" format="2">
  <advance width="342"/>
  <unicode hex="0026"/>
  <outline>
    <contour>
      <point x="9" y="604" type="line"/>
      <point x="9" y="0" type="line"/>
      <point x="112" y="0" type="line"/>
      <point x="202" y="494" type="line"/>
      <point x="221" y="494" type="line"/>
      <point x="337" y="-29" type="line"/>
      <point x="342" y="-28" type="line"/>
      <point x="225" y="497" type="line"/>
      <point x="198" y="497" type="line"/>
      <point x="107" y="3" type="line"/>
      <point x="14" y="3" type="line"/>
      <point x="14" y="600" type="line"/>
      <point x="104" y="600" type="line"/>
      <point x="104" y="1241" type="line"/>
      <point x="163" y="1597" type="line"/>
      <point x="222" y="1597" type="line"/>
      <point x="222" y="991" type="line"/>
      <point x="226" y="991" type="line"/>
      <point x="226" y="1600" type="line"/>
      <point x="160" y="1600" type="line"/>
      <point x="99" y="1242" type="line"/>
      <point x="99" y="604" type="line"/>
    </contour>
  </outline>
</glyph>
<glyph name="two" format="2">
  <advance width="145"/>
  <unicode hex="0032"/>
  <outline>
    <contour>
      <point x="30" y="0" type="line"/>
      <point x="117" y="0" type="line"/>
      <point x="117" y="3" type="line"/>
      <point x="34" y="3" type="line"/>
      <point x="34" y="798" type="line"/>
      <point x="110" y="798" type="line"/>
      <point x="110" y="1600" type="line"/>
      <point x="33" y="1600" type="line"/>
      <point x="33" y="1169" type="line"/>
      <point x="37" y="1169" type="line"/>
      <point x="37" y="1597" type="line"/>
      <point x="105" y="1597" type="line"/>
      <point x="105" y="802" type="line"/>
      <point x="30" y="802" type="line"/>
    </contour>
  </outline>
</glyph>
<glyph name="question" format="2">
  <advance width="174"/>
  <unicode hex="003F"/>
  <outline>
    <contour>
      <point x="66" y="330" type="line"/>
      <point x="91" y="330" type="line"/>
      <point x="143" y="543" type="line"/>
      <point x="143" y="1600" type="line"/>
      <point x="47" y="1600" type="line"/>
      <point x="47" y="1147" type="line"/>
      <point x="52" y="1147" type="line"/>
      <point x="52" y="1597" type="line"/>
      <point x="138" y="1597" type="line"/>
      <point x="138" y="544" type="line"/>
      <point x="86" y="333" type="line"/>
      <point x="66" y="333" type="line"/>
    </contour>
    <contour>
      <point x="84" y="0" type="line"/>
      <point x="89" y="0" type="line"/>
      <point x="89" y="63" type="line"/>
      <point x="84" y="63" type="line"/>
    </contour>
  </outline>
</glyph>
<glyph name="B" format="2">
  <advance width="191"/>
  <unicode hex="0042"/>
  <outline>
    <contour>
      <point x="48" y="0" type="line"/>
      <point x="117" y="0" type="line"/>
      <point x="152" y="164" type="line"/>
      <point x="152" y="802" type="line"/>
      <point x="100" y="802" type="line"/>
      <point x="135" y="963" type="line"/>
      <point x="135" y="1600" type="line"/>
      <point x="48" y="1600" type="line"/>
    </contour>
    <contour>
      <point x="52" y="3" type="line"/>
      <point x="52" y="798" type="line"/>
      <point x="148" y="798" type="line"/>
      <point x="148" y="165" type="line"/>
      <point x="113" y="3" type="line"/>
    </contour>
    <contour>
      <point x="52" y="802" type="line"/>
      <point x="52" y="1597" type="line"/>
      <point x="130" y="1597" type="line"/>
      <point x="130" y="963" type="line"/>
      <point x="95" y="802" type="line"/>
    </contour>
  </outline>
</glyph>
<glyph name="D" format="2">
  <advance width="171"/>
  <unicode hex="0044"/>
  <outline>
    <contour>
      <point x="35" y="0" type="line"/>
      <point x="106" y="0" type="line"/>
      <point x="141" y="164" type="line"/>
      <point x="141" y="1600" type="line"/>
      <point x="35" y="1600" type="line"/>
    </contour>
    <contour>
      <point x="39" y="3" type="line"/>
      <point x="39" y="1597" type="line"/>
      <point x="137" y="1597" type="line"/>
      <point x="137" y="165" type="line"/>
      <point x="102" y="3" type="line"/>
    </contour>
  </outline>
</glyph>
<glyph name="a" format="2">
  <advance width="158"/>
  <unicode hex="0061"/>
  <outline>
    <contour>
      <point x="22" y="0" type="line"/>
      <point x="98" y="0" type="line"/>
      <point x="119" y="1" type="line"/>
      <point x="119" y="0" type="line"/>
      <point x="123" y="0" type="line"/>
      <point x="123" y="1201" type="line"/>
      <point x="92" y="1201" type="line"/>
      <point x="22" y="827" type="line"/>
    </contour>
    <contour>
      <point x="26" y="3" type="line"/>
      <point x="26" y="825" type="line"/>
      <point x="96" y="1197" type="line"/>
      <point x="119" y="1197" type="line"/>
      <point x="119" y="3" type="line"/>
    </contour>
  </outline>
</glyph>
<glyph name="c" format="2">
  <advance width="122"/>
  <unicode hex="0063"/>
  <outline>
    <contour>
      <point x="31" y="0" type="line"/>
      <point x="31" y="1039" type="line"/>
      <point x="65" y="1201" type="line"/>
      <point x="99" y="1201" type="line"/>
      <point x="99" y="1197" type="line"/>
      <point x="69" y="1197" type="line"/>
      <point x="35" y="1036" type="line"/>
      <point x="35" y="3" type="line"/>
      <point x="98" y="3" type="line"/>
      <point x="100" y="0" type="line"/>
    </contour>
  </outline>
</glyph>
<glyph name="h" format="2">
  <advance width="148"/>
  <unicode hex="0068"/>
  <outline>
    <contour>
      <point x="114" y="0" type="line"/>
      <point x="114" y="1197" type="line"/>
      <point x="32" y="1197" type="line"/>
      <point x="32" y="1199" type="line"/>
      <point x="76" y="1201" type="line"/>
      <point x="118" y="1201" type="line"/>
      <point x="118" y="0" type="line"/>
    </contour>
    <contour>
      <point x="29" y="0" type="line"/>
      <point x="29" y="1700" type="line"/>
      <point x="33" y="1700" type="line"/>
      <point x="33" y="0" type="line"/>
    </contour>
  </outline>
</glyph>
<glyph name="j" format="2">
  <advance width="69"/>
  <unicode hex="006A"/>
  <outline>
    <contour>
      <point x="-36" y="-300" type="line"/>
      <point x="-21" y="-300" type="line"/>
      <point x="32" y="-44" type="line"/>
      <point x="32" y="1200" type="line"/>
      <point x="28" y="1200" type="line"/>
      <point x="28" y="-44" type="line"/>
      <point x="-25" y="-297" type="line"/>
      <point x="-36" y="-297" type="line"/>
    </contour>
    <contour>
      <point x="28" y="1293" type="line"/>
      <point x="28" y="1431" type="line"/>
      <point x="32" y="1431" type="line"/>
      <point x="32" y="1293" type="line"/>
    </contour>
  </outline>
</glyph>
<glyph name="k" format="2">
  <advance width="161"/>
  <unicode hex="006B"/>
  <outline>
    <contour>
      <point x="40" y="808" type="line"/>
      <point x="130" y="808" type="line"/>
      <point x="130" y="0" type="line"/>
      <point x="134" y="0" type="line"/>
      <point x="134" y="811" type="line"/>
      <point x="74" y="811" type="line"/>
      <point x="75" y="811" type="line"/>
      <point x="124" y="1200" type="line"/>
      <point x="120" y="1200" type="line"/>
      <point x="71" y="811" type="line"/>
      <point x="40" y="811" type="line"/>
    </contour>
    <contour>
      <point x="36" y="0" type="line"/>
      <point x="41" y="0" type="line"/>
      <point x="41" y="1700" type="line"/>
      <point x="36" y="1700" type="line"/>
    </contour>
  </outline>
</glyph>
<glyph name="n" format="2">
  <advance width="166"/>
  <unicode hex="006E"/>
  <outline>
    <contour>
      <point x="31" y="0" type="line"/>
      <point x="35" y="0" type="line"/>
      <point x="35" y="1036" type="line"/>
      <point x="70" y="1197" type="line"/>
      <point x="127" y="1197" type="line"/>
      <point x="127" y="0" type="line"/>
      <point x="131" y="0" type="line"/>
      <point x="131" y="1200" type="line"/>
      <point x="66" y="1200" type="line"/>
      <point x="31" y="1037" type="line"/>
    </contour>
  </outline>
</glyph>
<glyph name="p" format="2">
  <advance width="172"/>
  <unicode hex="0070"/>
  <outline>
    <contour>
      <point x="31" y="-300" type="line"/>
      <point x="36" y="-300" type="line"/>
      <point x="36" y="0" type="line"/>
      <point x="101" y="0" type="line"/>
      <point x="136" y="162" type="line"/>
      <point x="136" y="1200" type="line"/>
      <point x="66" y="1200" type="line"/>
      <point x="31" y="1038" type="line"/>
    </contour>
    <contour>
      <point x="36" y="3" type="line"/>
      <point x="36" y="1035" type="line"/>
      <point x="70" y="1197" type="line"/>
      <point x="132" y="1197" type="line"/>
      <point x="132" y="163" type="line"/>
      <point x="97" y="3" type="line"/>
    </contour>
  </outline>
</glyph>
<glyph name="r" format="2">
  <advance width="105"/>
  <unicode hex="0072"/>
  <outline>
    <contour>
      <point x="108" y="1197" type="line"/>
      <point x="59" y="1197" type="line"/>
      <point x="24" y="1036" type="line"/>
      <point x="24" y="0" type="line"/>
      <point x="20" y="0" type="line"/>
      <point x="20" y="1037" type="line"/>
      <point x="55" y="1200" type="line"/>
      <point x="108" y="1200" type="line"/>
    </contour>
  </outline>
</glyph>
<glyph name="t" format="2">
  <advance width="107"/>
  <unicode hex="0074"/>
  <outline>
    <contour>
      <point x="31" y="0" type="line" smooth="yes"/>
      <point x="101" y="0" type="line"/>
      <point x="101" y="3" type="line"/>
      <point x="35" y="3" type="line" smooth="yes"/>
      <point x="35" y="1600" type="line"/>
      <point x="31" y="1600" type="line" smooth="yes"/>
    </contour>
    <contour>
      <point x="34" y="1196" type="line"/>
      <point x="106" y="1196" type="line"/>
      <point x="106" y="1200" type="line"/>
      <point x="76" y="1200" type="line"/>
      <point x="34" y="1198" type="line"/>
    </contour>
  </outline>
</glyph>
<glyph name="x" format="2">
  <advance width="145"/>
  <unicode hex="0078"/>
  <outline>
    <contour>
      <point x="-3" y="1201" type="line"/>
      <point x="-3" y="1197" type="line"/>
      <point x="26" y="1197" type="line"/>
      <point x="116" y="1" type="line"/>
      <point x="148" y="1" type="line"/>
      <point x="148" y="5" type="line"/>
      <point x="120" y="5" type="line"/>
      <point x="30" y="1201" type="line"/>
    </contour>
    <contour>
      <point x="29" y="-6" type="line"/>
      <point x="33" y="-6" type="line"/>
      <point x="73" y="595" type="line"/>
      <point x="69" y="595" type="line"/>
    </contour>
    <contour>
      <point x="73" y="606" type="line"/>
      <point x="77" y="606" type="line"/>
      <point x="114" y="1210" type="line"/>
      <point x="110" y="1210" type="line"/>
    </contour>
  </outline>
</glyph>
<glyph name="y" format="2">
  <advance width="143"/>
  <unicode hex="0079"/>
  <outline>
    <contour>
      <point x="37" y="-1" type="line"/>
      <point x="93" y="-1" type="line"/>
      <point x="84" y="-300" type="line"/>
      <point x="88" y="-300" type="line"/>
      <point x="132" y="1200" type="line"/>
      <point x="128" y="1200" type="line"/>
      <point x="93" y="3" type="line"/>
      <point x="41" y="3" type="line"/>
      <point x="40" y="1200" type="line"/>
      <point x="36" y="1200" type="line"/>
    </contour>
  </outline>
</glyph>
<glyph name="summation" format="2">
  <advance width="158"/>
  <unicode hex="2211"/>
  <outline>
    <contour>
      <point x="34" y="-400" type="line"/>
      <point x="131" y="-400" type="line"/>
      <point x="131" y="-56" type="line"/>
      <point x="127" y="-56" type="line"/>
      <point x="127" y="-397" type="line"/>
      <point x="39" y="-397" type="line"/>
      <point x="119" y="599" type="line"/>
      <point x="119" y="601" type="line"/>
      <point x="39" y="1597" type="line"/>
      <point x="126" y="1597" type="line"/>
      <point x="126" y="1159" type="line"/>
      <point x="130" y="1159" type="line"/>
      <point x="130" y="1600" type="line"/>
      <point x="34" y="1600" type="line"/>
      <point x="115" y="600" type="line"/>
    </contour>
  </outline>
</glyph>
<glyph name="G.wide" format="2">
  <advance width="179"/>
  <outline>
    <contour>
      <point x="35" y="0" type="line"/>
      <point x="140" y="0" type="line"/>
      <point x="140" y="802" type="line"/>
      <point x="80" y="802" type="line"/>
      <point x="80" y="799" type="line"/>
      <point x="135" y="799" type="line"/>
      <point x="135" y="3" type="line"/>
      <point x="40" y="3" type="line"/>
      <point x="40" y="1434" type="line"/>
      <point x="74" y="1597" type="line"/>
      <point x="140" y="1597" type="line"/>
      <point x="142" y="1600" type="line"/>
      <point x="70" y="1600" type="line"/>
      <point x="35" y="1435" type="line"/>
    </contour>
  </outline>
</glyph>
<glyph name="L.wide" format="2">
  <advance width="138"/>
  <outline>
    <contour>
      <point x="47" y="0" type="line"/>
      <point x="47" y="1600" type="line"/>
      <point x="52" y="1600" type="line"/>
      <point x="52" y="3" type="line"/>
      <point x="126" y="3" type="line"/>
      <point x="126" y="0" type="line"/>
    </contour>
  </outline>
</glyph>
<glyph name="Y.alt" format="2">
  <advance width="145"/>
  <outline>
    <contour>
      <point x="54" y="711" type="line" smooth="yes"/>
      <point x="95" y="711" type="line"/>
      <point x="74" y="-26" type="line"/>
      <point x="78" y="-27" type="line"/>
      <point x="130" y="1599" type="line" smooth="yes"/>
      <point x="127" y="1600" type="line" smooth="yes"/>
      <point x="97" y="716" type="line"/>
      <point x="58" y="716" type="line" smooth="yes"/>
      <point x="19" y="1600" type="line"/>
      <point x="15" y="1598" type="line" smooth="yes"/>
    </contour>
  </outline>
</glyph>
<glyph name="eight.smol" format="2">
  <advance width="109"/>
  <outline>
    <contour>
      <point x="17" y="0" type="line"/>
      <point x="92" y="0" type="line"/>
      <point x="92" y="469" type="line"/>
      <point x="68" y="497" type="line"/>
      <point x="68" y="496" type="line"/>
      <point x="89" y="496" type="line"/>
      <point x="89" y="995" type="line"/>
      <point x="20" y="995" type="line"/>
      <point x="20" y="525" type="line"/>
      <point x="41" y="498" type="line"/>
      <point x="41" y="498" type="line"/>
      <point x="17" y="498" type="line"/>
    </contour>
    <contour>
      <point x="21" y="3" type="line"/>
      <point x="21" y="496" type="line"/>
      <point x="66" y="496" type="line"/>
      <point x="88" y="467" type="line"/>
      <point x="88" y="3" type="line"/>
    </contour>
    <contour>
      <point x="44" y="498" type="line"/>
      <point x="24" y="526" type="line"/>
      <point x="24" y="992" type="line"/>
      <point x="85" y="992" type="line"/>
      <point x="85" y="498" type="line"/>
    </contour>
  </outline>
</glyph>
<glyph name="four.smol" format="2">
  <advance width="92"/>
  <outline>
    <contour>
      <point x="61" y="0" type="line"/>
      <point x="65" y="0" type="line"/>
      <point x="65" y="496" type="line"/>
      <point x="82" y="496" type="line"/>
      <point x="82" y="498" type="line"/>
      <point x="65" y="498" type="line"/>
      <point x="65" y="995" type="line"/>
      <point x="61" y="995" type="line"/>
      <point x="61" y="498" type="line"/>
      <point x="11" y="498" type="line"/>
      <point x="11" y="550" type="line"/>
      <point x="25" y="995" type="line"/>
      <point x="22" y="995" type="line"/>
      <point x="7" y="549" type="line"/>
      <point x="7" y="496" type="line"/>
      <point x="61" y="496" type="line"/>
    </contour>
  </outline>
</glyph>
<glyph name="seven.smol" format="2">
  <advance width="107"/>
  <outline>
    <contour>
      <point x="48" y="-32" type="line"/>
      <point x="51" y="-32" type="line"/>
      <point x="89" y="927" type="line"/>
      <point x="89" y="995" type="line"/>
      <point x="24" y="995" type="line"/>
      <point x="24" y="721" type="line"/>
      <point x="28" y="721" type="line"/>
      <point x="28" y="992" type="line"/>
      <point x="85" y="992" type="line"/>
      <point x="85" y="930" type="line"/>
    </contour>
  </outline>
</glyph>
<glyph name="six.smol" format="2">
  <advance width="111"/>
  <outline>
    <contour>
      <point x="22" y="0" type="line"/>
      <point x="89" y="0" type="line"/>
      <point x="89" y="499" type="line"/>
      <point x="26" y="499" type="line"/>
      <point x="26" y="894" type="line"/>
      <point x="48" y="992" type="line"/>
      <point x="85" y="992" type="line"/>
      <point x="85" y="722" type="line"/>
      <point x="89" y="722" type="line"/>
      <point x="89" y="995" type="line"/>
      <point x="45" y="995" type="line"/>
      <point x="22" y="894" type="line"/>
    </contour>
    <contour>
      <point x="85" y="497" type="line"/>
      <point x="85" y="3" type="line"/>
      <point x="26" y="3" type="line"/>
      <point x="26" y="497" type="line"/>
    </contour>
  </outline>
</glyph>
<glyph name="zero.smol" format="2">
  <advance width="125"/>
  <outline>
    <contour>
      <point x="29" y="0" type="line"/>
      <point x="96" y="0" type="line"/>
      <point x="96" y="995" type="line"/>
      <point x="29" y="995" type="line"/>
    </contour>
    <contour>
      <point x="32" y="2" type="line"/>
      <point x="32" y="993" type="line"/>
      <point x="93" y="993" type="line"/>
      <point x="93" y="2" type="line"/>
    </contour>
  </outline>
</glyph>
